# xmcd
#
# Track frame offsets:
#	150
#	9743
#	17787
#	29957
#	42877
#	54851
#	70151
#	80387
#	92617
#	111213
#	123655
#	134324
#
# Disc length: 1961 seconds
#
# Revision: 0
# Processed by: cddbd v1.5.2PL0 Copyright (c) Steve Scherf et al.
# Submitted via: audiograbber 1.83.01
#
DISCID=9e07a70c
DTITLE=Various Artist - Roots of Country Music, Vol 2  cd1
DYEAR=2014
DGENRE=Country
TTITLE0=Glen Campbell - Gentle On My Mind
TTITLE1=Elvis - (Let Me Be Your) Teddy Bear
TTITLE2=Feddy Fender - Wasted Days And Wasted Nights
TTITLE3=Johnny Cash - Folsom Prison Blues
TTITLE4=Johnny Paycheck - Take This Job And Shove It
TTITLE5=Kenny Rogers - For The Good Times
TTITLE6=Loretta Lynn - You're Looking At Country
TTITLE7=Hank Williams - Your Cheatin' Heart
TTITLE8=Juice Newton - Angel Of The Morning
TTITLE9=George Jones - White Lightning
TTITLE10=Roger Miller - King Of The Road
TTITLE11=Charlie Rich - The Most Beautiful Girl
EXTD=
EXTT0=
EXTT1=
EXTT2=
EXTT3=
EXTT4=
EXTT5=
EXTT6=
EXTT7=
EXTT8=
EXTT9=
EXTT10=
EXTT11=
PLAYORDER=
